<?xml version="1.0" encoding="UTF-8"?>
<svg version="1.1" xmlns="http://www.w3.org/2000/svg" width="512" height="512">
<path d="M0 0 C1.39983692 0.30477657 2.7998176 0.60889342 4.19992065 0.91244507 C8.37790103 1.82149465 12.55291548 2.74364971 16.72767258 3.66737366 C19.91487557 4.37140076 23.10287335 5.07174032 26.29104614 5.7713623 C40.51286286 8.89274335 54.73001083 12.03450269 68.94281864 15.19660568 C76.54492594 16.88783447 84.14817741 18.57369756 91.7531029 20.25221026 C97.19044948 21.45277375 102.62640763 22.65949588 108.06139982 23.87067258 C111.27261961 24.58612715 114.48451038 25.29826608 117.69758987 26.00532913 C154.25006844 34.05533073 154.25006844 34.05533073 166.68359375 43.3203125 C167.4003125 43.85398438 168.11703125 44.38765625 168.85546875 44.9375 C181.29378177 55.01349775 189.2892976 70.47004303 191.47170448 86.21577644 C191.88804212 90.35094373 191.83084451 94.49585136 191.82885742 98.64819336 C191.83389534 100.17197853 191.83389534 100.17197853 191.83903503 101.72654724 C191.84851645 105.07942946 191.85048775 108.43226145 191.8515625 111.78515625 C191.85478057 114.13904337 191.85814504 116.4929303 191.86164856 118.84681702 C191.86763536 123.78875185 191.86948927 128.73066922 191.86889648 133.67260742 C191.8687957 139.93761589 191.88236244 146.20250888 191.89966869 152.4674902 C191.91092029 157.33838897 191.91281159 162.20926116 191.91228676 167.08017159 C191.91345047 169.38531448 191.9177792 171.69045844 191.92561913 173.9955883 C192.1617029 250.679097 168.27820169 325.9922491 115.72265625 383.09765625 C113.8710908 385.11593353 112.08526375 387.17380385 110.30859375 389.2578125 C103.38623152 397.19202814 95.77870709 404.59190661 87.68359375 411.3203125 C87.12542969 411.78695313 86.56726563 412.25359375 85.9921875 412.734375 C56.00668046 437.73255951 12.01585766 470.40241672 -29.16894531 467.53466797 C-42.42247644 466.21172568 -54.50370238 460.08131322 -66.31640625 454.3203125 C-67.24050293 453.87123535 -68.16459961 453.4221582 -69.11669922 452.95947266 C-83.62603093 445.83273534 -97.13920997 437.67542351 -110.31640625 428.3203125 C-111.06567383 427.78873535 -111.81494141 427.2571582 -112.58691406 426.70947266 C-120.75978197 420.85781667 -128.40792631 414.66709169 -135.71875 407.76953125 C-137.89339254 405.719154 -140.10312162 403.75587883 -142.37890625 401.8203125 C-150.33098522 394.89111505 -157.50540568 387.37892284 -164.0703125 379.12890625 C-166.42745384 376.18145473 -168.86751869 373.3168124 -171.31640625 370.4453125 C-217.85613362 314.46895838 -236.40094902 243.26659232 -236.51953125 171.72265625 C-236.52235863 170.56236971 -236.525186 169.40208317 -236.52809906 168.20663643 C-236.54299262 162.07615057 -236.55228632 155.94568768 -236.55664062 149.81518555 C-236.56213689 143.52247069 -236.58621784 137.22997089 -236.61461258 130.93732357 C-236.63331786 126.05826716 -236.63844857 121.17926203 -236.6399765 116.30017281 C-236.64298145 113.98117448 -236.65093594 111.66217659 -236.66416168 109.34321404 C-236.82242705 79.48451101 -236.82242705 79.48451101 -229.69140625 66.1328125 C-229.34440674 65.46701172 -228.99740723 64.80121094 -228.63989258 64.11523438 C-222.90530515 53.48889145 -215.54511042 45.73343119 -205.31640625 39.3203125 C-204.57261719 38.84980469 -203.82882813 38.37929688 -203.0625 37.89453125 C-198.1238201 35.1202815 -192.93265481 33.5437193 -187.47583008 32.12792969 C-186.66309789 31.91598843 -185.8503657 31.70404716 -185.01300526 31.48568344 C-172.25430026 28.21937318 -159.37543291 25.43919785 -146.51936698 22.58647251 C-142.69268614 21.73660249 -138.8668893 20.88276975 -135.04096985 20.02947998 C-128.6363401 18.60165973 -122.23110182 17.176598 -115.82543945 15.75341797 C-108.43258775 14.11088967 -101.04056622 12.46466812 -93.64900273 10.81635308 C-85.73763559 9.05214655 -77.82572365 7.29039358 -69.91362405 5.52947521 C-67.6464383 5.02473171 -65.37934941 4.51955512 -63.11227989 4.01428986 C-59.55428628 3.22145738 -55.99592627 2.43029004 -52.43727875 1.64039803 C-50.5156147 1.2134814 -48.59429602 0.78501114 -46.67298889 0.35649109 C-44.94745285 -0.02599037 -44.94745285 -0.02599037 -43.1870575 -0.41619873 C-42.19223201 -0.6373875 -41.19740652 -0.85857628 -40.17243481 -1.08646774 C-26.21678454 -3.98516686 -13.81223346 -3.07073488 0 0 Z M46.15234375 158.7734375 C44.25044322 160.73552476 42.38447011 162.45322868 40.30859375 164.2109375 C33.57621918 170.03039455 27.43885979 176.49911894 21.18359375 182.8203125 C6.95417945 197.19969804 6.95417945 197.19969804 0.86132812 202.36523438 C-4.94592105 207.57873789 -10.32881961 213.27488931 -15.81640625 218.8203125 C-31.27766503 234.44452558 -31.27766503 234.44452558 -38.31640625 240.3203125 C-42.99356364 236.42547 -47.38133285 232.36439343 -51.625 228.00390625 C-52.79593035 226.81546585 -53.96716354 225.62732378 -55.13867188 224.43945312 C-56.94977662 222.59743127 -58.75841996 220.75318298 -60.56176758 218.90356445 C-62.32591628 217.09672119 -64.09968948 215.29977496 -65.875 213.50390625 C-66.40234238 212.95794296 -66.92968475 212.41197968 -67.4730072 211.84947205 C-73.00991135 206.27559952 -78.94098599 201.66165842 -87.015625 201.1875 C-92.53608236 201.50616817 -96.86897595 203.13020315 -101.12890625 206.6328125 C-101.85078125 207.5196875 -102.57265625 208.4065625 -103.31640625 209.3203125 C-104.05890625 210.2071875 -104.80140625 211.0940625 -105.56640625 212.0078125 C-108.25382817 217.09471828 -109.01001137 221.90910972 -107.85449219 227.59204102 C-104.89254546 236.04870482 -98.87326691 241.47143435 -92.56640625 247.5078125 C-91.49475558 248.55788086 -90.42443327 249.60930666 -89.35546875 250.66210938 C-85.0746904 254.85725647 -80.76142649 258.99495108 -76.203125 262.890625 C-73.05126156 265.59531424 -70.15116236 268.47722027 -67.2578125 271.45703125 C-66.37673828 272.36388672 -65.49566406 273.27074219 -64.58789062 274.20507812 C-62.77791575 276.07769092 -60.97583557 277.9579658 -59.18164062 279.84570312 C-53.0338329 286.13721417 -47.66031991 290.6640424 -38.75390625 291.7578125 C-31.10842252 290.78475093 -26.77399204 288.36748261 -21.56640625 282.6484375 C-19.73863866 280.75720576 -17.91850941 279.10773859 -15.91796875 277.41308594 C-10.73787222 272.90020709 -5.92079721 268.03754363 -1.0848999 263.16397095 C0.59573615 261.47038388 2.27964004 259.78010473 3.96435547 258.09057617 C7.54027912 254.50331437 11.11223807 250.9121213 14.68359375 247.3203125 C18.82739198 243.15278277 22.97287036 238.98695275 27.12261963 234.8253479 C28.76857481 233.17298718 30.4114502 231.51760785 32.05419922 229.86206055 C36.86030138 225.03269058 41.70660064 220.31874764 46.88858032 215.88824463 C49.9416183 213.22143653 52.78035088 210.3467109 55.6328125 207.46875 C56.25331985 206.8468277 56.87382721 206.2249054 57.51313782 205.58413696 C59.46818462 203.62356417 61.41970633 201.65952685 63.37109375 199.6953125 C64.68921801 198.37216157 66.00757565 197.04924309 67.32617188 195.7265625 C70.27690282 192.7659425 73.22597565 189.80369379 76.17088318 186.83728027 C77.6102568 185.39385584 79.06118453 183.96198041 80.51269531 182.53076172 C84.25251365 178.72280904 85.00437494 175.87071946 85.12109375 170.5703125 C84.994654 163.64984326 82.92329734 159.71635567 78.2265625 154.79296875 C73.97569529 150.92344583 69.94237774 149.52945917 64.30859375 149.0078125 C55.87124377 149.73517026 51.75815812 152.693285 46.15234375 158.7734375 Z " fill="#293234" transform="translate(278.31640625,23.6796875)"/>
</svg>
